# 3ds Max Wavefront OBJ Exporter v0.97b - (c)2007 guruware
# File Created: 04.05.2016 22:45:23

mtllib 0020.mtl

#
# object Object001
#

v  6.5714 8.2313 6.5714
v  0.0000 8.2313 6.5714
v  0.0000 1.4569 6.5714
v  7.1875 1.4569 6.5714
v  7.1875 1.4569 -6.5714
v  6.5714 8.2313 -6.5714
v  0.0000 8.2313 -6.5714
v  0.0000 1.4569 -6.5714
v  11.7567 15.1081 -11.7567
v  11.7567 15.1081 11.7567
v  0.0000 15.1081 11.7567
v  0.0000 15.1081 -11.7567
v  11.7567 38.6215 11.7567
v  0.0000 38.6215 11.7567
v  11.7567 38.6215 -11.7567
v  0.0000 38.6215 -11.7567
v  6.5714 15.6474 6.5714
v  0.0000 15.6474 6.5714
v  0.0000 11.6312 6.5714
v  6.5714 11.6312 6.5714
v  6.5714 15.6474 -6.5714
v  6.5714 11.6312 -6.5714
v  0.0000 15.6474 -6.5714
v  0.0000 11.6312 -6.5714
v  5.8075 10.2193 6.5714
v  0.0000 10.2193 6.5714
v  5.8075 10.2193 -6.5714
v  0.0000 10.2193 -6.5714
v  9.8195 8.9361 4.7472
v  9.8195 11.5716 4.7472
v  12.4550 11.5716 4.7472
v  12.4550 8.9361 4.7472
v  9.8195 8.9361 7.3827
v  12.4550 8.9361 7.3827
v  12.4550 11.5716 7.3827
v  9.8195 11.5716 7.3827
v  3.6770 -1.2310 -1.1522
v  1.5167 -1.2310 -1.1522
v  1.5167 -0.3636 -1.1522
v  3.6770 -0.3636 -1.1522
v  3.6770 -1.2310 2.1603
v  3.6770 -0.3636 2.1603
v  1.5167 -0.3636 2.1603
v  1.5167 -1.2310 2.1603
v  3.6770 -1.2310 0.7384
v  1.5167 -1.2310 0.7384
v  1.5167 -0.3636 0.7384
v  3.6770 -0.3636 0.7384
v  1.5167 1.5142 -1.1522
v  3.6769 1.5142 -1.1522
v  3.6769 1.5142 0.7384
v  1.5167 1.5142 0.7384
v  6.0119 44.1899 -13.3759
v  0.0000 45.1933 -15.1934
v  0.0000 46.0716 -3.1741
v  6.5790 45.0682 -2.4275
v  12.3456 25.0478 7.0578
v  14.9454 20.6811 1.5127
v  16.1836 32.6585 -1.6682
v  13.6903 32.6585 10.1365
v  12.6429 22.4679 -12.2424
v  0.0000 22.4679 -15.8774
v  0.0000 32.6585 -18.1961
v  13.6903 32.6585 -14.5610
v  13.1579 40.8668 -1.6810
v  12.0237 40.8669 11.2278
v  12.0237 40.8669 -11.5584
v  6.0119 44.1899 11.8202
v  7.0626 36.0069 12.0217
v  11.7903 28.1599 11.9747
v  11.4091 34.3327 12.7273
v  0.0000 45.1933 12.5150
v  0.0000 37.2703 12.1852
v  6.0469 40.0984 13.5692
v  0.0000 41.2318 13.9984
v  14.9454 14.6818 -1.7352
v  12.6429 14.6818 -12.2424
v  0.0000 14.6818 -15.8774
v  10.5758 38.4369 13.3203
v  6.5661 12.6328 1.5580
v  7.8138 13.2962 1.5580
v  7.8138 13.2962 3.2791
v  6.5661 12.6328 3.2791
v  7.7321 14.9220 3.2791
v  7.7321 14.9220 1.5580
v  6.5661 15.1010 1.5580
v  6.5661 15.1010 3.2791
v  9.1269 13.4420 1.5580
v  9.1269 13.4420 3.2791
v  8.7656 14.6761 3.2791
v  8.7656 14.6761 1.5580
v  6.5661 12.6328 -0.1631
v  7.8138 13.2962 -0.1631
v  7.7321 14.9220 -0.1631
v  6.5661 15.1010 -0.1631
v  9.1269 13.4420 -0.1631
v  8.7656 14.6761 -0.1631
v  -6.5714 8.2313 6.5714
v  -7.1875 1.4569 6.5714
v  -7.1875 1.4569 -6.5714
v  -6.5714 8.2313 -6.5714
v  -11.7567 15.1081 -11.7567
v  -11.7567 15.1081 11.7567
v  -11.7567 38.6215 11.7567
v  -11.7567 38.6215 -11.7567
v  -6.5714 15.6474 6.5714
v  -6.5714 11.6312 6.5714
v  -6.5714 15.6474 -6.5714
v  -6.5714 11.6312 -6.5714
v  -5.8075 10.2193 6.5714
v  -5.8075 10.2193 -6.5714
v  -9.8195 8.9361 4.7472
v  -12.4550 8.9361 4.7472
v  -12.4550 11.5716 4.7472
v  -9.8195 11.5716 4.7472
v  -9.8195 8.9361 7.3827
v  -9.8195 11.5716 7.3827
v  -12.4550 11.5716 7.3827
v  -12.4550 8.9361 7.3827
v  -3.6770 -1.2310 -1.1522
v  -3.6770 -0.3636 -1.1522
v  -1.5167 -0.3636 -1.1522
v  -1.5167 -1.2310 -1.1522
v  -3.6770 -1.2310 2.1603
v  -1.5167 -1.2310 2.1603
v  -1.5167 -0.3636 2.1603
v  -3.6770 -0.3636 2.1603
v  -1.5167 -1.2310 0.7384
v  -3.6770 -1.2310 0.7384
v  -1.5167 -0.3636 0.7384
v  -3.6770 -0.3636 0.7384
v  -3.6769 1.5142 -1.1522
v  -1.5167 1.5142 -1.1522
v  -3.6769 1.5142 0.7384
v  -1.5167 1.5142 0.7384
v  -6.0119 44.1899 -13.3759
v  -6.5790 45.0682 -2.4275
v  -12.3456 25.0478 7.0578
v  -13.6903 32.6585 10.1365
v  -16.1836 32.6585 -1.6682
v  -14.9454 20.6811 1.5127
v  -12.6429 22.4679 -12.2424
v  -13.6903 32.6585 -14.5610
v  -12.0237 40.8669 11.2278
v  -13.1579 40.8668 -1.6810
v  -12.0237 40.8669 -11.5584
v  -6.0119 44.1899 11.8202
v  -7.0626 36.0069 12.0217
v  -11.4091 34.3327 12.7273
v  -11.7903 28.1599 11.9747
v  -6.0469 40.0984 13.5692
v  -12.6429 14.6818 -12.2424
v  -14.9454 14.6818 -1.7352
v  -10.5758 38.4369 13.3203
v  -6.5661 12.6328 1.5580
v  -6.5661 12.6328 3.2791
v  -7.8138 13.2962 3.2791
v  -7.8138 13.2962 1.5580
v  -7.7321 14.9220 3.2791
v  -6.5661 15.1010 3.2791
v  -6.5661 15.1010 1.5580
v  -7.7321 14.9220 1.5580
v  -9.1269 13.4420 3.2791
v  -9.1269 13.4420 1.5580
v  -8.7656 14.6761 3.2791
v  -8.7656 14.6761 1.5580
v  -7.8138 13.2962 -0.1631
v  -6.5661 12.6328 -0.1631
v  -7.7321 14.9220 -0.1631
v  -6.5661 15.1010 -0.1631
v  -9.1269 13.4420 -0.1631
v  -8.7656 14.6761 -0.1631
v  6.0902 19.2747 11.7681
v  9.7577 19.2747 11.7681
v  9.7889 23.3218 11.7681
# 175 vertices

vn 0.0000 0.0000 1.0000
vn 0.9959 0.0906 -0.0000
vn 0.9739 0.2268 -0.0000
vn 0.0000 0.0000 -1.0000
vn 0.0000 -1.0000 -0.0000
vn 1.0000 0.0000 -0.0000
vn 0.0000 1.0000 -0.0000
vn 0.9694 -0.2454 -0.0000
vn 0.9979 -0.0645 -0.0000
vn -1.0000 0.0000 -0.0000
vn 0.1852 0.9801 -0.0716
vn 0.1599 0.9833 -0.0872
vn 0.9421 -0.1133 0.3156
vn 0.9900 -0.0679 0.1234
vn 0.9955 0.0922 0.0235
vn 0.9859 0.0415 0.1623
vn 0.2576 -0.2289 -0.9388
vn 0.0000 -0.2219 -0.9751
vn 0.0000 0.0126 -0.9999
vn 0.2922 0.0276 -0.9560
vn 0.9485 0.3159 0.0229
vn 0.9785 0.1873 0.0860
vn 0.3210 0.2717 -0.9073
vn 0.4558 0.3859 -0.8021
vn 0.5338 0.8443 0.0469
vn 0.4880 0.8698 0.0730
vn 0.9809 0.0503 -0.1877
vn 0.9732 -0.1413 -0.1813
vn 0.9439 0.2913 -0.1553
vn -0.1292 -0.2844 0.9500
vn 0.7920 -0.2260 0.5671
vn 0.3436 -0.0608 0.9372
vn 0.5034 0.8588 -0.0950
vn 0.5422 0.8379 -0.0623
vn 0.1430 0.9875 0.0666
vn 0.1706 0.9838 0.0551
vn 0.0000 -0.3965 0.9180
vn 0.0701 0.0262 0.9972
vn 0.0000 0.0188 0.9998
vn 0.9703 0.1151 -0.2126
vn 0.9863 0.0000 -0.1651
vn 0.2763 0.0000 -0.9611
vn 0.0000 0.2330 -0.9725
vn 0.3526 0.0693 0.9332
vn 0.9203 -0.2751 0.2781
vn 0.8122 -0.0657 0.5796
vn 0.1932 0.3976 0.8970
vn 0.0000 0.3507 0.9365
vn 0.5489 0.3313 0.7674
vn 0.4694 -0.8830 -0.0000
vn 0.1918 0.9814 -0.0000
vn 0.1518 0.9884 -0.0000
vn 0.1104 -0.9939 -0.0000
vn 0.8322 -0.5545 -0.0000
vn 0.2314 0.9728 -0.0000
vn 0.9597 0.2809 -0.0000
vn -0.9959 0.0906 -0.0000
vn -0.9739 0.2268 -0.0000
vn -0.9694 -0.2454 -0.0000
vn -0.9979 -0.0645 -0.0000
vn -0.1599 0.9833 -0.0872
vn -0.1852 0.9801 -0.0716
vn -0.9421 -0.1133 0.3156
vn -0.9859 0.0415 0.1623
vn -0.9955 0.0922 0.0235
vn -0.9900 -0.0679 0.1234
vn -0.2576 -0.2289 -0.9388
vn -0.2922 0.0276 -0.9560
vn -0.9785 0.1873 0.0860
vn -0.9485 0.3159 0.0229
vn -0.4558 0.3859 -0.8021
vn -0.3210 0.2717 -0.9073
vn -0.4880 0.8698 0.0730
vn -0.5338 0.8443 0.0469
vn -0.9809 0.0503 -0.1877
vn -0.9732 -0.1413 -0.1813
vn -0.9439 0.2913 -0.1553
vn 0.1292 -0.2844 0.9500
vn -0.3436 -0.0608 0.9372
vn -0.7920 -0.2260 0.5671
vn -0.5422 0.8379 -0.0623
vn -0.5034 0.8588 -0.0950
vn -0.1706 0.9838 0.0551
vn -0.1430 0.9875 0.0666
vn -0.0701 0.0262 0.9972
vn -0.9863 0.0000 -0.1651
vn -0.9703 0.1151 -0.2126
vn -0.2763 0.0000 -0.9611
vn -0.3526 0.0693 0.9332
vn -0.8122 -0.0657 0.5796
vn -0.9203 -0.2751 0.2781
vn -0.1932 0.3976 0.8970
vn -0.5489 0.3313 0.7674
vn -0.4694 -0.8830 -0.0000
vn -0.1918 0.9814 -0.0000
vn -0.1518 0.9884 -0.0000
vn -0.1104 -0.9939 -0.0000
vn -0.8322 -0.5545 -0.0000
vn -0.2314 0.9728 -0.0000
vn -0.9597 0.2809 -0.0000
# 100 vertex normals

vt 0.3971 0.8155 0.0000
vt 0.2595 0.8288 0.0000
vt 0.2454 0.6871 0.0000
vt 0.3958 0.6721 0.0000
vt 0.6729 0.6690 0.0000
vt 0.6750 0.8124 0.0000
vt 0.8126 0.8220 0.0000
vt 0.8233 0.6803 0.0000
vt 0.8512 0.5019 0.0000
vt 0.8512 0.2773 0.0000
vt 0.9635 0.2773 0.0000
vt 0.9635 0.5019 0.0000
vt 0.8512 0.0526 0.0000
vt 0.9635 0.0526 0.0000
vt 0.6266 0.2773 0.0000
vt 0.6266 0.0526 0.0000
vt 0.9635 0.7265 0.0000
vt 0.8512 0.7265 0.0000
vt 0.9635 0.9512 0.0000
vt 0.8512 0.9512 0.0000
vt 0.5262 0.6148 0.0000
vt 0.3961 0.6154 0.0000
vt 0.3958 0.5443 0.0000
vt 0.5259 0.5437 0.0000
vt 0.4014 0.9772 0.0000
vt 0.2667 0.9808 0.0000
vt 0.2645 0.8985 0.0000
vt 0.3997 0.8940 0.0000
vt 0.6741 0.9743 0.0000
vt 0.6738 0.8911 0.0000
vt 0.8094 0.9744 0.0000
vt 0.8094 0.8917 0.0000
vt 0.3911 0.8613 0.0000
vt 0.2637 0.8699 0.0000
vt 0.6818 0.8581 0.0000
vt 0.8096 0.8632 0.0000
vt 0.2171 0.8131 0.0000
vt 0.2171 0.8888 0.0000
vt 0.1414 0.8888 0.0000
vt 0.1414 0.8131 0.0000
vt 0.1049 0.8178 0.0000
vt 0.1041 0.8935 0.0000
vt 0.0284 0.8927 0.0000
vt 0.0292 0.8170 0.0000
vt 0.1414 0.7374 0.0000
vt 0.2171 0.7374 0.0000
vt 0.1032 0.9692 0.0000
vt 0.0275 0.9684 0.0000
vt 0.2171 0.9645 0.0000
vt 0.1414 0.9645 0.0000
vt 0.0300 0.7413 0.0000
vt 0.1057 0.7421 0.0000
vt 0.6961 0.4252 0.0000
vt 0.6938 0.3316 0.0000
vt 0.7314 0.3307 0.0000
vt 0.7336 0.4243 0.0000
vt 0.7408 0.4672 0.0000
vt 0.7406 0.5004 0.0000
vt 0.6578 0.5000 0.0000
vt 0.6580 0.4667 0.0000
vt 0.6141 0.4272 0.0000
vt 0.6118 0.3336 0.0000
vt 0.5851 0.5540 0.0000
vt 0.5853 0.5208 0.0000
vt 0.6577 0.5212 0.0000
vt 0.6575 0.5544 0.0000
vt 0.8129 0.5221 0.0000
vt 0.8127 0.5553 0.0000
vt 0.7403 0.5549 0.0000
vt 0.7405 0.5217 0.0000
vt 0.5502 0.3351 0.0000
vt 0.5525 0.4287 0.0000
vt 0.5493 0.2975 0.0000
vt 0.6109 0.2960 0.0000
vt 0.6150 0.4648 0.0000
vt 0.5534 0.4663 0.0000
vt 0.8128 0.3287 0.0000
vt 0.8150 0.4223 0.0000
vt 0.8123 0.6272 0.0000
vt 0.7399 0.6268 0.0000
vt 0.6571 0.6264 0.0000
vt 0.5847 0.6260 0.0000
vt 0.3472 0.1392 0.0000
vt 0.3763 0.0820 0.0000
vt 0.4553 0.2071 0.0000
vt 0.3955 0.2518 0.0000
vt 0.1605 0.4173 0.0000
vt 0.1003 0.3471 0.0000
vt 0.2278 0.3061 0.0000
vt 0.2570 0.4342 0.0000
vt 0.1134 0.1827 0.0000
vt 0.1152 0.0328 0.0000
vt 0.2348 0.0312 0.0000
vt 0.2206 0.1738 0.0000
vt 0.3175 0.2919 0.0000
vt 0.3596 0.4250 0.0000
vt 0.3016 0.1889 0.0000
vt 0.4433 0.4006 0.0000
vt 0.3026 0.5130 0.0000
vt 0.2085 0.4650 0.0000
vt 0.2814 0.4651 0.0000
vt 0.5164 0.3861 0.0000
vt 0.4935 0.4982 0.0000
vt 0.4114 0.4970 0.0000
vt 0.4337 0.4501 0.0000
vt 0.5073 0.4454 0.0000
vt 0.0291 0.3086 0.0000
vt 0.0286 0.1826 0.0000
vt 0.0290 0.0314 0.0000
vt 0.3336 0.4664 0.0000
vt 0.3768 0.4609 0.0000
vt 0.3215 0.6090 0.0000
vt 0.2598 0.6493 0.0000
vt 0.2049 0.5724 0.0000
vt 0.2720 0.5314 0.0000
vt 0.1350 0.5168 0.0000
vt 0.0500 0.4795 0.0000
vt 0.0755 0.4221 0.0000
vt 0.1603 0.4595 0.0000
vt 0.2061 0.6917 0.0000
vt 0.1499 0.6225 0.0000
vt 0.1115 0.5674 0.0000
vt 0.0273 0.5304 0.0000
vt 0.0737 0.6746 0.0000
vt 0.0352 0.6191 0.0000
vt 0.4675 0.0550 0.0000
vt 0.5747 0.0558 0.0000
vt 0.5742 0.2460 0.0000
# 128 texture coords

g Object001
usemtl wire_225087143
s 8
f 1/1/1 2/2/1 3/3/1 
f 3/3/1 4/4/1 1/1/1 
s 64
f 5/5/2 6/6/3 1/1/3 
f 1/1/3 4/4/2 5/5/2 
s 32
f 7/7/4 6/6/4 5/5/4 
f 5/5/4 8/8/4 7/7/4 
s 2
f 9/9/5 10/10/5 11/11/5 
f 11/11/5 12/12/5 9/9/5 
s 8
f 11/11/1 10/10/1 13/13/1 
f 13/13/1 14/14/1 11/11/1 
s 64
f 9/15/6 15/16/6 13/13/6 
f 13/13/6 10/10/6 9/15/6 
s 32
f 9/9/4 12/12/4 16/17/4 
f 16/17/4 15/18/4 9/9/4 
s off
f 15/18/7 16/17/7 14/19/7 
f 14/19/7 13/20/7 15/18/7 
f 5/21/5 4/22/5 3/23/5 
f 3/23/5 8/24/5 5/21/5 
s 8
f 17/25/1 18/26/1 19/27/1 
f 19/27/1 20/28/1 17/25/1 
s 64
f 21/29/6 17/25/6 20/28/8 
f 20/28/8 22/30/8 21/29/6 
s 32
f 23/31/4 21/29/4 22/30/4 
f 22/30/4 24/32/4 23/31/4 
s 8
f 25/33/1 26/34/1 2/2/1 
f 2/2/1 1/1/1 25/33/1 
s 64
f 27/35/9 25/33/9 1/1/3 
f 1/1/3 6/6/3 27/35/9 
s 32
f 28/36/4 27/35/4 6/6/4 
f 6/6/4 7/7/4 28/36/4 
s 8
f 20/28/1 19/27/1 26/34/1 
f 26/34/1 25/33/1 20/28/1 
s 64
f 22/30/8 20/28/8 25/33/9 
f 25/33/9 27/35/9 22/30/8 
s 32
f 24/32/4 22/30/4 27/35/4 
f 27/35/4 28/36/4 24/32/4 
s 2
f 29/37/4 30/38/4 31/39/4 
f 31/39/4 32/40/4 29/37/4 
s 4
f 33/41/1 34/42/1 35/43/1 
f 35/43/1 36/44/1 33/41/1 
s 8
f 29/37/5 32/40/5 34/45/5 
f 34/45/5 33/46/5 29/37/5 
s 16
f 32/47/6 31/48/6 35/43/6 
f 35/43/6 34/42/6 32/47/6 
s 32
f 31/39/7 30/38/7 36/49/7 
f 36/49/7 35/50/7 31/39/7 
s 64
f 30/51/10 29/52/10 33/41/10 
f 33/41/10 36/44/10 30/51/10 
s 2
f 37/53/4 38/54/4 39/55/4 
f 39/55/4 40/56/4 37/53/4 
s 4
f 41/57/1 42/58/1 43/59/1 
f 43/59/1 44/60/1 41/57/1 
s 8
f 38/54/5 37/53/5 45/61/5 
f 45/61/5 46/62/5 38/54/5 
s 16
f 39/63/10 38/64/10 46/65/10 
f 46/65/10 47/66/10 39/63/10 
s 64
f 37/67/6 40/68/6 48/69/6 
f 48/69/6 45/70/6 37/67/6 
s 8
f 44/71/5 46/62/5 45/61/5 
f 45/61/5 41/72/5 44/71/5 
s 16
f 43/73/10 47/74/10 46/62/10 
f 46/62/10 44/71/10 43/73/10 
s 32
f 42/58/7 48/69/7 47/66/7 
f 47/66/7 43/59/7 42/58/7 
s 64
f 41/72/6 45/61/6 48/75/6 
f 48/75/6 42/76/6 41/72/6 
s off
f 39/55/4 49/77/4 50/78/4 
f 50/78/4 40/56/4 39/55/4 
f 40/68/6 50/79/6 51/80/6 
f 51/80/6 48/69/6 40/68/6 
f 48/69/1 51/80/1 52/81/1 
f 52/81/1 47/66/1 48/69/1 
f 47/66/10 52/81/10 49/82/10 
f 49/82/10 39/63/10 47/66/10 
f 53/83/11 54/84/11 55/85/11 
f 55/85/12 56/86/12 53/83/12 
s 64
f 57/87/13 58/88/14 59/89/15 
f 59/89/15 60/90/16 57/87/13 
s 32
f 61/91/17 62/92/18 63/93/19 
f 63/93/19 64/94/20 61/91/17 
s 64
f 60/90/16 59/89/15 65/95/21 
f 65/95/21 66/96/22 60/90/16 
s 32
f 64/94/20 63/93/19 53/83/23 
f 53/83/23 67/97/24 64/94/20 
s off
f 66/96/25 65/95/25 56/86/25 
f 56/86/26 68/98/26 66/96/26 
s 64
f 64/94/27 59/89/15 58/88/14 
f 58/88/14 61/91/28 64/94/27 
f 67/97/29 65/95/21 59/89/15 
f 59/89/15 64/94/27 67/97/29 
s 8
f 69/99/30 70/100/31 71/101/32 
s off
f 67/97/33 53/83/33 56/86/33 
f 56/86/34 65/95/34 67/97/34 
f 68/98/35 56/86/35 55/85/35 
f 55/85/36 72/102/36 68/98/36 
s 8
f 73/103/37 69/104/30 74/105/38 
f 74/105/38 75/106/39 73/103/37 
s off
f 58/88/40 76/107/40 77/108/40 
f 77/108/41 61/91/41 58/88/41 
f 61/91/42 77/108/42 78/109/42 
f 78/109/42 62/92/42 61/91/42 
s 32
f 63/93/19 54/84/43 53/83/23 
s 8
f 69/99/30 71/101/32 79/110/44 
f 69/104/30 79/111/44 74/105/38 
f 70/100/31 57/87/45 60/90/46 
f 60/90/46 71/101/32 70/100/31 
f 68/98/47 72/102/48 75/106/39 
f 75/106/39 74/105/38 68/98/47 
f 66/96/49 79/110/44 71/101/32 
f 71/101/32 60/90/46 66/96/49 
f 68/98/47 74/105/38 79/111/44 
f 79/111/44 66/96/49 68/98/47 
s 2
f 80/112/50 81/113/50 82/114/50 
f 82/114/50 83/115/50 80/112/50 
s 4
f 84/116/51 85/117/51 86/118/52 
f 86/118/52 87/119/52 84/116/51 
s 8
f 82/114/1 84/116/1 87/119/1 
f 87/119/1 83/115/1 82/114/1 
s 16
f 81/113/53 88/120/54 89/121/54 
f 89/121/54 82/114/53 81/113/53 
s 4
f 90/122/55 91/123/55 85/117/51 
f 85/117/51 84/116/51 90/122/55 
s 8
f 82/114/1 89/121/1 90/122/1 
f 90/122/1 84/116/1 82/114/1 
s 16
f 90/122/56 89/121/54 88/124/54 
f 88/124/54 91/125/56 90/122/56 
s 2
f 80/112/50 92/115/50 93/114/50 
f 93/114/50 81/113/50 80/112/50 
s 4
f 94/116/51 95/119/52 86/118/52 
f 86/118/52 85/117/51 94/116/51 
s 8
f 93/114/4 92/115/4 95/119/4 
f 95/119/4 94/116/4 93/114/4 
s 16
f 81/113/53 93/114/53 96/121/54 
f 96/121/54 88/120/54 81/113/53 
s 4
f 97/122/55 94/116/51 85/117/51 
f 85/117/51 91/123/55 97/122/55 
s 8
f 93/114/4 94/116/4 97/122/4 
f 97/122/4 96/121/4 93/114/4 
s 16
f 97/122/56 91/125/56 88/124/54 
f 88/124/54 96/121/54 97/122/56 
s 8
f 98/1/1 99/4/1 3/3/1 
f 3/3/1 2/2/1 98/1/1 
s 64
f 100/5/57 99/4/57 98/1/58 
f 98/1/58 101/6/58 100/5/57 
s 32
f 7/7/4 8/8/4 100/5/4 
f 100/5/4 101/6/4 7/7/4 
s 2
f 102/9/5 12/12/5 11/11/5 
f 11/11/5 103/10/5 102/9/5 
s 8
f 11/11/1 14/14/1 104/13/1 
f 104/13/1 103/10/1 11/11/1 
s 64
f 102/15/10 103/10/10 104/13/10 
f 104/13/10 105/16/10 102/15/10 
s 32
f 102/9/4 105/18/4 16/17/4 
f 16/17/4 12/12/4 102/9/4 
s off
f 105/18/7 104/20/7 14/19/7 
f 14/19/7 16/17/7 105/18/7 
f 100/21/5 8/24/5 3/23/5 
f 3/23/5 99/22/5 100/21/5 
s 8
f 106/25/1 107/28/1 19/27/1 
f 19/27/1 18/26/1 106/25/1 
s 64
f 108/29/10 109/30/59 107/28/59 
f 107/28/59 106/25/10 108/29/10 
s 32
f 23/31/4 24/32/4 109/30/4 
f 109/30/4 108/29/4 23/31/4 
s 8
f 110/33/1 98/1/1 2/2/1 
f 2/2/1 26/34/1 110/33/1 
s 64
f 111/35/60 101/6/58 98/1/58 
f 98/1/58 110/33/60 111/35/60 
s 32
f 28/36/4 7/7/4 101/6/4 
f 101/6/4 111/35/4 28/36/4 
s 8
f 107/28/1 110/33/1 26/34/1 
f 26/34/1 19/27/1 107/28/1 
s 64
f 109/30/59 111/35/60 110/33/60 
f 110/33/60 107/28/59 109/30/59 
s 32
f 24/32/4 28/36/4 111/35/4 
f 111/35/4 109/30/4 24/32/4 
s 2
f 112/37/4 113/40/4 114/39/4 
f 114/39/4 115/38/4 112/37/4 
s 4
f 116/41/1 117/44/1 118/43/1 
f 118/43/1 119/42/1 116/41/1 
s 8
f 112/37/5 116/46/5 119/45/5 
f 119/45/5 113/40/5 112/37/5 
s 16
f 113/47/10 119/42/10 118/43/10 
f 118/43/10 114/48/10 113/47/10 
s 32
f 114/39/7 118/50/7 117/49/7 
f 117/49/7 115/38/7 114/39/7 
s 64
f 115/51/6 117/44/6 116/41/6 
f 116/41/6 112/52/6 115/51/6 
s 2
f 120/53/4 121/56/4 122/55/4 
f 122/55/4 123/54/4 120/53/4 
s 4
f 124/57/1 125/60/1 126/59/1 
f 126/59/1 127/58/1 124/57/1 
s 8
f 123/54/5 128/62/5 129/61/5 
f 129/61/5 120/53/5 123/54/5 
s 16
f 122/63/6 130/66/6 128/65/6 
f 128/65/6 123/64/6 122/63/6 
s 64
f 120/67/10 129/70/10 131/69/10 
f 131/69/10 121/68/10 120/67/10 
s 8
f 125/71/5 124/72/5 129/61/5 
f 129/61/5 128/62/5 125/71/5 
s 16
f 126/73/6 125/71/6 128/62/6 
f 128/62/6 130/74/6 126/73/6 
s 32
f 127/58/7 126/59/7 130/66/7 
f 130/66/7 131/69/7 127/58/7 
s 64
f 124/72/10 127/76/10 131/75/10 
f 131/75/10 129/61/10 124/72/10 
s off
f 122/55/4 121/56/4 132/78/4 
f 132/78/4 133/77/4 122/55/4 
f 121/68/10 131/69/10 134/80/10 
f 134/80/10 132/79/10 121/68/10 
f 131/69/1 130/66/1 135/81/1 
f 135/81/1 134/80/1 131/69/1 
f 130/66/6 122/63/6 133/82/6 
f 133/82/6 135/81/6 130/66/6 
f 136/83/61 137/86/61 55/85/61 
f 55/85/62 54/84/62 136/83/62 
s 64
f 138/87/63 139/90/64 140/89/65 
f 140/89/65 141/88/66 138/87/63 
s 32
f 142/91/67 143/94/68 63/93/19 
f 63/93/19 62/92/18 142/91/67 
s 64
f 139/90/64 144/96/69 145/95/70 
f 145/95/70 140/89/65 139/90/64 
s 32
f 143/94/68 146/97/71 136/83/72 
f 136/83/72 63/93/19 143/94/68 
s off
f 144/96/73 147/98/73 137/86/73 
f 137/86/74 145/95/74 144/96/74 
s 64
f 143/94/75 142/91/76 141/88/66 
f 141/88/66 140/89/65 143/94/75 
f 146/97/77 143/94/75 140/89/65 
f 140/89/65 145/95/70 146/97/77 
s 8
f 148/99/78 149/101/79 150/100/80 
s off
f 146/97/81 145/95/81 137/86/81 
f 137/86/82 136/83/82 146/97/82 
f 147/98/83 72/102/83 55/85/83 
f 55/85/84 137/86/84 147/98/84 
s 8
f 73/103/37 75/106/39 151/105/85 
f 151/105/85 148/104/78 73/103/37 
s off
f 141/88/86 142/91/86 152/108/86 
f 152/108/87 153/107/87 141/88/87 
f 142/91/88 62/92/88 78/109/88 
f 78/109/88 152/108/88 142/91/88 
s 32
f 63/93/19 136/83/72 54/84/43 
s 8
f 148/99/78 154/110/89 149/101/79 
f 148/104/78 151/105/85 154/111/89 
f 150/100/80 149/101/79 139/90/90 
f 139/90/90 138/87/91 150/100/80 
f 147/98/92 151/105/85 75/106/39 
f 75/106/39 72/102/48 147/98/92 
f 144/96/93 139/90/90 149/101/79 
f 149/101/79 154/110/89 144/96/93 
f 147/98/92 144/96/93 154/111/89 
f 154/111/89 151/105/85 147/98/92 
s 2
f 155/112/94 156/115/94 157/114/94 
f 157/114/94 158/113/94 155/112/94 
s 4
f 159/116/95 160/119/96 161/118/96 
f 161/118/96 162/117/95 159/116/95 
s 8
f 157/114/1 156/115/1 160/119/1 
f 160/119/1 159/116/1 157/114/1 
s 16
f 158/113/97 157/114/97 163/121/98 
f 163/121/98 164/120/98 158/113/97 
s 4
f 165/122/99 159/116/95 162/117/95 
f 162/117/95 166/123/99 165/122/99 
s 8
f 157/114/1 159/116/1 165/122/1 
f 165/122/1 163/121/1 157/114/1 
s 16
f 165/122/100 166/125/100 164/124/98 
f 164/124/98 163/121/98 165/122/100 
s 2
f 155/112/94 158/113/94 167/114/94 
f 167/114/94 168/115/94 155/112/94 
s 4
f 169/116/95 162/117/95 161/118/96 
f 161/118/96 170/119/96 169/116/95 
s 8
f 167/114/4 169/116/4 170/119/4 
f 170/119/4 168/115/4 167/114/4 
s 16
f 158/113/97 164/120/98 171/121/98 
f 171/121/98 167/114/97 158/113/97 
s 4
f 172/122/99 166/123/99 162/117/95 
f 162/117/95 169/116/95 172/122/99 
s 8
f 167/114/4 171/121/4 172/122/4 
f 172/122/4 169/116/4 167/114/4 
s 16
f 172/122/100 171/121/98 164/124/98 
f 164/124/98 166/125/100 172/122/100 
s 1
f 173/126/1 174/127/1 175/128/1 
# 281 faces

